<svg xmlns="http://www.w3.org/2000/svg" xmlns:xlink="http://www.w3.org/1999/xlink" viewBox="0 0 770.6 561.78"><defs><linearGradient id="linear-gradient" x1="1757.14" y1="1136.93" x2="2527.74" y2="1136.93" gradientUnits="userSpaceOnUse"><stop offset="0" stop-color="#548fcb"/><stop offset="1" stop-color="#2b3289"/></linearGradient></defs><title>nowCaptain hat</title><g id="die_line" data-name="die line"><path d="M2153.28,1417.82c-56.75-.33-101.88-5.54-146.56-14.9-37-7.76-73.24-18.07-108-32.7-27.86-11.72-54.46-25.52-76.67-46-13.49-12.44-24.32-26.58-27.58-45-2.55-14.42.6-27.72,8.09-40.31a17.83,17.83,0,0,0,2.45-8.47c.22-16.79.14-33.57.07-50.36a18,18,0,0,0-.85-5.7c-14.13-41.16-28.2-82.34-42.55-123.43-14.11-40.42,5.78-82,46.89-97.51q86.68-32.62,173.38-65.25c21.88-8.26,43.84-16.26,66.73-21.57,20.5-4.77,41.23-8.53,62.3-9.56,17.88-.87,35.86-1.5,53.71-.62,16.83.83,33.62,3.32,50.29,5.9,40.67,6.29,78.16,22.24,116.18,36.49,47.94,18,95.77,36.2,143.82,53.89,34,12.51,55.5,43.15,52.52,78.08-.88,10.3-4.55,20.51-7.9,30.46-12.66,37.51-25.73,74.9-38.57,112.36a23,23,0,0,0-1.3,7.29q-.16,25.59,0,51.17a10,10,0,0,0,1.51,5c14.64,23.6,13.2,49-3.83,71.17-15.5,20.15-36.06,34.29-58.37,46.34-34.75,18.78-72,31.34-110.31,41.28A660.17,660.17,0,0,1,2208.35,1414C2186.42,1416.18,2164.35,1417.08,2153.28,1417.82Zm-11.23-190.62h305.64c1.44,0,2.88-.11,4.31,0,3,.26,3.95-1,3.9-3.9-.14-9-.07-18,0-27s.06-9-9.41-9.17c-7.13-.09-12.12-4.69-12.23-11.28s4.85-11.44,11.9-11.69a90.45,90.45,0,0,1,9.46,0c2.78.18,3.94-.82,4.82-3.4,13.64-39.86,27.52-79.64,41.1-119.52,9-26.36-5.19-55.36-31.93-65.64-25.28-9.72-50.66-19.2-76-28.74q-40.24-15.14-80.53-30.18c-27-10.06-53.62-21.06-81.86-27.64a384.62,384.62,0,0,0-134-7.63,379.39,379.39,0,0,0-87.71,21.16c-40.21,15-80.35,30.21-120.52,45.31-24.7,9.29-49.54,18.21-74,27.94-26.57,10.55-40.33,38.36-31.62,64.65,13.14,39.69,27.17,79.12,40.65,118.72,1.28,3.75,3,5,7.18,5q98.13-.23,196.27-.13l254.82,0q49.07,0,98.14.08c7.53,0,12.39,4.7,12.4,11.54,0,6.66-5.08,11.34-12.53,11.35q-37.23.06-74.47,0l-167.87,0H1970.42q-68.45,0-136.88-.1c-3.53,0-4.77,1-4.7,4.46.2,9.57.05,19.14.08,28.72,0,7.69-.8,7,7.06,7Z" transform="translate(-1757.14 -856.05)" style="fill:url(#linear-gradient)"/></g></svg>