<svg xmlns="http://www.w3.org/2000/svg" viewBox="0 0 2827.6 413.06"><title>nowCaptain!</title><g id="die_line" data-name="die line"><path d="M1912.8,1862.39V1829h42.52v33.41q0,40.71-24.91,62.87t-74.71,22.17q-49.82,0-75.32-22.17t-25.52-62.87v-243q0-40.68,24.91-62.87t74.71-22.17q49.8,0,75.33,22.17t25.51,62.87v57.71H1912.8v-57.71q0-48.59-57.71-48.59t-57.71,48.59v243q0,48.6,57.71,48.6T1912.8,1862.39Z" transform="translate(-716.15 -1534.37)" style="fill:#2b3289"/><path d="M2249.92,1938.32H2231.7l-15.8-38.88a100.39,100.39,0,0,1-33.41,34.93,83.57,83.57,0,0,1-45.55,13.06q-87.48,0-87.48-85v-60.74q0-85.05,87.48-85h70.46V1617q0-21.87-14-34t-41.31-12.15q-54.07,0-54.06,46.17v35.83h-42.52v-33.41q0-40.68,24-62.87t72.59-22.17q48.6,0,73.2,22.17t24.6,62.87Zm-42.52-185.27h-70.46q-25.52,0-35.23,12.76t-9.72,35.84v60.74q0,23.08,9.72,35.84t35.23,12.76q25.5,0,47.38-19.75t23.08-39.18Z" transform="translate(-716.15 -1534.37)" style="fill:#2b3289"/><path d="M2401.78,1938.32h-42.52V1543.49H2451q47.39,0,72,22.47t24.61,62.57v103.26q0,40.71-24.3,62.87T2451,1816.83h-49.2ZM2505,1731.79V1628.53q0-23.08-14-35.84T2451,1579.93h-49.2v200.46H2451Q2505,1780.39,2505,1731.79Z" transform="translate(-716.15 -1534.37)" style="fill:#2b3289"/><path d="M2635.64,1543.49h133.64v36.44h-91.12v291q0,17,8.81,28.55t24.9,11.55q16.1,0,24.6-11.24t8.51-28.86v-72.28h42.52v69.85q0,38.28-20.35,58.62t-55,20.35q-34.63,0-55.58-20.35t-21-58.62Z" transform="translate(-716.15 -1534.37)" style="fill:#2b3289"/><path d="M3060.85,1938.32h-18.23l-15.79-38.88a100.48,100.48,0,0,1-33.41,34.93,83.61,83.61,0,0,1-45.56,13.06q-87.46,0-87.47-85v-60.74q0-85.05,87.47-85h70.47V1617q0-21.87-14-34t-41.3-12.15q-54.08,0-54.06,46.17v35.83h-42.52v-33.41q0-40.68,24-62.87t72.59-22.17q48.59,0,73.19,22.17t24.61,62.87Zm-42.52-185.27h-70.47q-25.52,0-35.23,12.76t-9.72,35.84v60.74q0,23.08,9.72,35.84t35.23,12.76q25.51,0,47.38-19.75t23.09-39.18Z" transform="translate(-716.15 -1534.37)" style="fill:#2b3289"/><path d="M3218.78,1938.32h-42.52V1543.49h42.52Z" transform="translate(-716.15 -1534.37)" style="fill:#2b3289"/><path d="M3382.78,1938.32h-42.52V1543.49h18.22l15.19,39.48q29.16-48.6,80.79-48.6,89.29,0,89.29,85v318.91h-42.52V1619.41q0-23.07-10-35.83t-36.75-12.76q-26.73,0-49.2,20.65t-22.48,40.09Z" transform="translate(-716.15 -1534.37)" style="fill:#2b3289"/><path d="M825.1,1553.37q-49.26,0-77.07,46.36l-14.49-37.67H716.15v376.68h40.57V1646.09q0-18.54,21.44-38.25t46.94-19.7q25.5,0,35.06,12.17t9.56,34.19v304.24h40.57V1634.5Q910.29,1553.38,825.1,1553.37Z" transform="translate(-716.15 -1534.37)" style="fill:#548fcb"/><path d="M1183.81,1574.52q-24.93-21.15-73.89-21.15t-73.59,21.15q-24.64,21.17-24.63,60v231.8q0,38.84,24.91,60t73.89,21.15q49,0,73.6-21.15t24.63-60V1634.5Q1208.73,1595.68,1183.81,1574.52Zm-15.65,291.78q0,46.37-58,46.36t-58-46.36V1634.5q0-46.37,58-46.36t58,46.36Z" transform="translate(-716.15 -1534.37)" style="fill:#548fcb"/><path d="M1605.69,1562.06V1866.3q0,46.37-53.61,46.36t-53.6-46.36V1562.06h-40.57V1866.3q0,46.37-53.6,46.36t-53.61-46.36V1562.06h-40.56V1866.3q0,38.25,24.34,59.69t72.73,21.44q48.38,0,71-33.61,23.74,33.62,71.56,33.61t72.15-21.44q24.35-21.43,24.34-59.69V1562.06Z" transform="translate(-716.15 -1534.37)" style="fill:#548fcb"/></g></svg>